<?xml version="1.0" ?><svg viewBox="0 0 24 24" xmlns="http://www.w3.org/2000/svg"><title/><g id="Snapchat"><g data-name="&lt;Group&gt;" id="_Group_"><path d="M18.25,13.14l2.19-1.71a1,1,0,0,0,.33-1.1h0a1,1,0,0,0-1.13-.67L18.1,10a.5.5,0,0,1-.58-.59C18.28,4.73,15.84,1.5,12,1.5S5.71,4.73,6.48,9.37A.5.5,0,0,1,5.9,10L4.36,9.67a1,1,0,0,0-1.14.66h0a1,1,0,0,0,.33,1.1l2.2,1.71a.5.5,0,0,1,.15.6A7.92,7.92,0,0,1,.5,18c.13,1.69,3,.38,3.5,1a2.7,2.7,0,0,1,.5,1.5h2c1.5,0,3.31,2,5.5,2s4-2,5.5-2h2A2.7,2.7,0,0,1,20,19c.5-.62,3.38.69,3.5-1a7.92,7.92,0,0,1-5.41-4.26A.5.5,0,0,1,18.25,13.14Z" data-name="&lt;Path&gt;" id="_Path_" style="fill:none;stroke:#303c42;stroke-linecap:round;stroke-linejoin:round"/></g></g></svg>